# Wavefront OBJ file automatically generated by Tiled2Unity

# Vertices (Count = 441)
v 0 -32 0
v -32 -32 0
v -32 0 0
v 0 0 0
v -64 -32 0
v -64 0 0
v -96 -32 0
v -96 0 0
v -128 -32 0
v -128 0 0
v -160 -32 0
v -160 0 0
v -192 -32 0
v -192 0 0
v -224 -32 0
v -224 0 0
v -256 -32 0
v -256 0 0
v -288 -32 0
v -288 0 0
v -320 -32 0
v -320 0 0
v -352 -32 0
v -352 0 0
v -384 -32 0
v -384 0 0
v -416 -32 0
v -416 0 0
v -448 -32 0
v -448 0 0
v -480 -32 0
v -480 0 0
v -512 -32 0
v -512 0 0
v -544 -32 0
v -544 0 0
v -576 -32 0
v -576 0 0
v -608 -32 0
v -608 0 0
v -640 -32 0
v -640 0 0
v 0 -64 0
v -32 -64 0
v -64 -64 0
v -96 -64 0
v -128 -64 0
v -160 -64 0
v -192 -64 0
v -224 -64 0
v -256 -64 0
v -288 -64 0
v -320 -64 0
v -352 -64 0
v -384 -64 0
v -416 -64 0
v -448 -64 0
v -480 -64 0
v -512 -64 0
v -544 -64 0
v -576 -64 0
v -608 -64 0
v -640 -64 0
v 0 -96 0
v -32 -96 0
v -64 -96 0
v -96 -96 0
v -128 -96 0
v -160 -96 0
v -192 -96 0
v -224 -96 0
v -256 -96 0
v -288 -96 0
v -320 -96 0
v -352 -96 0
v -384 -96 0
v -416 -96 0
v -448 -96 0
v -480 -96 0
v -512 -96 0
v -544 -96 0
v -576 -96 0
v -608 -96 0
v -640 -96 0
v 0 -128 0
v -32 -128 0
v -64 -128 0
v -96 -128 0
v -128 -128 0
v -160 -128 0
v -192 -128 0
v -224 -128 0
v -256 -128 0
v -288 -128 0
v -320 -128 0
v -352 -128 0
v -384 -128 0
v -416 -128 0
v -448 -128 0
v -480 -128 0
v -512 -128 0
v -544 -128 0
v -576 -128 0
v -608 -128 0
v -640 -128 0
v 0 -160 0
v -32 -160 0
v -64 -160 0
v -96 -160 0
v -128 -160 0
v -160 -160 0
v -192 -160 0
v -224 -160 0
v -256 -160 0
v -288 -160 0
v -320 -160 0
v -352 -160 0
v -384 -160 0
v -416 -160 0
v -448 -160 0
v -480 -160 0
v -512 -160 0
v -544 -160 0
v -576 -160 0
v -608 -160 0
v -640 -160 0
v 0 -192 0
v -32 -192 0
v -64 -192 0
v -96 -192 0
v -128 -192 0
v -160 -192 0
v -192 -192 0
v -224 -192 0
v -256 -192 0
v -288 -192 0
v -320 -192 0
v -352 -192 0
v -384 -192 0
v -416 -192 0
v -448 -192 0
v -480 -192 0
v -512 -192 0
v -544 -192 0
v -576 -192 0
v -608 -192 0
v -640 -192 0
v 0 -224 0
v -32 -224 0
v -64 -224 0
v -96 -224 0
v -128 -224 0
v -160 -224 0
v -192 -224 0
v -224 -224 0
v -256 -224 0
v -288 -224 0
v -320 -224 0
v -352 -224 0
v -384 -224 0
v -416 -224 0
v -448 -224 0
v -480 -224 0
v -512 -224 0
v -544 -224 0
v -576 -224 0
v -608 -224 0
v -640 -224 0
v 0 -256 0
v -32 -256 0
v -64 -256 0
v -96 -256 0
v -128 -256 0
v -160 -256 0
v -192 -256 0
v -224 -256 0
v -256 -256 0
v -288 -256 0
v -320 -256 0
v -352 -256 0
v -384 -256 0
v -416 -256 0
v -448 -256 0
v -480 -256 0
v -512 -256 0
v -544 -256 0
v -576 -256 0
v -608 -256 0
v -640 -256 0
v 0 -288 0
v -32 -288 0
v -64 -288 0
v -96 -288 0
v -128 -288 0
v -160 -288 0
v -192 -288 0
v -224 -288 0
v -256 -288 0
v -288 -288 0
v -320 -288 0
v -352 -288 0
v -384 -288 0
v -416 -288 0
v -448 -288 0
v -480 -288 0
v -512 -288 0
v -544 -288 0
v -576 -288 0
v -608 -288 0
v -640 -288 0
v 0 -320 0
v -32 -320 0
v -64 -320 0
v -96 -320 0
v -128 -320 0
v -160 -320 0
v -192 -320 0
v -224 -320 0
v -256 -320 0
v -288 -320 0
v -320 -320 0
v -352 -320 0
v -384 -320 0
v -416 -320 0
v -448 -320 0
v -480 -320 0
v -512 -320 0
v -544 -320 0
v -576 -320 0
v -608 -320 0
v -640 -320 0
v 0 -352 0
v -32 -352 0
v -64 -352 0
v -96 -352 0
v -128 -352 0
v -160 -352 0
v -192 -352 0
v -224 -352 0
v -256 -352 0
v -288 -352 0
v -320 -352 0
v -352 -352 0
v -384 -352 0
v -416 -352 0
v -448 -352 0
v -480 -352 0
v -512 -352 0
v -544 -352 0
v -576 -352 0
v -608 -352 0
v -640 -352 0
v 0 -384 0
v -32 -384 0
v -64 -384 0
v -96 -384 0
v -128 -384 0
v -160 -384 0
v -192 -384 0
v -224 -384 0
v -256 -384 0
v -288 -384 0
v -320 -384 0
v -352 -384 0
v -384 -384 0
v -416 -384 0
v -448 -384 0
v -480 -384 0
v -512 -384 0
v -544 -384 0
v -576 -384 0
v -608 -384 0
v -640 -384 0
v 0 -416 0
v -32 -416 0
v -64 -416 0
v -96 -416 0
v -128 -416 0
v -160 -416 0
v -192 -416 0
v -224 -416 0
v -256 -416 0
v -288 -416 0
v -320 -416 0
v -352 -416 0
v -384 -416 0
v -416 -416 0
v -448 -416 0
v -480 -416 0
v -512 -416 0
v -544 -416 0
v -576 -416 0
v -608 -416 0
v -640 -416 0
v 0 -448 0
v -32 -448 0
v -64 -448 0
v -96 -448 0
v -128 -448 0
v -160 -448 0
v -192 -448 0
v -224 -448 0
v -256 -448 0
v -288 -448 0
v -320 -448 0
v -352 -448 0
v -384 -448 0
v -416 -448 0
v -448 -448 0
v -480 -448 0
v -512 -448 0
v -544 -448 0
v -576 -448 0
v -608 -448 0
v -640 -448 0
v 0 -480 0
v -32 -480 0
v -64 -480 0
v -96 -480 0
v -128 -480 0
v -160 -480 0
v -192 -480 0
v -224 -480 0
v -256 -480 0
v -288 -480 0
v -320 -480 0
v -352 -480 0
v -384 -480 0
v -416 -480 0
v -448 -480 0
v -480 -480 0
v -512 -480 0
v -544 -480 0
v -576 -480 0
v -608 -480 0
v -640 -480 0
v 0 -512 0
v -32 -512 0
v -64 -512 0
v -96 -512 0
v -128 -512 0
v -160 -512 0
v -192 -512 0
v -224 -512 0
v -256 -512 0
v -288 -512 0
v -320 -512 0
v -352 -512 0
v -384 -512 0
v -416 -512 0
v -448 -512 0
v -480 -512 0
v -512 -512 0
v -544 -512 0
v -576 -512 0
v -608 -512 0
v -640 -512 0
v 0 -544 0
v -32 -544 0
v -64 -544 0
v -96 -544 0
v -128 -544 0
v -160 -544 0
v -192 -544 0
v -224 -544 0
v -256 -544 0
v -288 -544 0
v -320 -544 0
v -352 -544 0
v -384 -544 0
v -416 -544 0
v -448 -544 0
v -480 -544 0
v -512 -544 0
v -544 -544 0
v -576 -544 0
v -608 -544 0
v -640 -544 0
v 0 -576 0
v -32 -576 0
v -64 -576 0
v -96 -576 0
v -128 -576 0
v -160 -576 0
v -192 -576 0
v -224 -576 0
v -256 -576 0
v -288 -576 0
v -320 -576 0
v -352 -576 0
v -384 -576 0
v -416 -576 0
v -448 -576 0
v -480 -576 0
v -512 -576 0
v -544 -576 0
v -576 -576 0
v -608 -576 0
v -640 -576 0
v 0 -608 0
v -32 -608 0
v -64 -608 0
v -96 -608 0
v -128 -608 0
v -160 -608 0
v -192 -608 0
v -224 -608 0
v -256 -608 0
v -288 -608 0
v -320 -608 0
v -352 -608 0
v -384 -608 0
v -416 -608 0
v -448 -608 0
v -480 -608 0
v -512 -608 0
v -544 -608 0
v -576 -608 0
v -608 -608 0
v -640 -608 0
v 0 -640 0
v -32 -640 0
v -64 -640 0
v -96 -640 0
v -128 -640 0
v -160 -640 0
v -192 -640 0
v -224 -640 0
v -256 -640 0
v -288 -640 0
v -320 -640 0
v -352 -640 0
v -384 -640 0
v -416 -640 0
v -448 -640 0
v -480 -640 0
v -512 -640 0
v -544 -640 0
v -576 -640 0
v -608 -640 0
v -640 -640 0

# Texture cooridinates (Count = 24)
vt 0.7000122 0.3750153
vt 0.7999878 0.3750153
vt 0.7999878 0.4999847
vt 0.7000122 0.4999847
vt 0.3000122 0.6250153
vt 0.3999878 0.6250153
vt 0.3999878 0.7499847
vt 0.3000122 0.7499847
vt 0.2000122 0.6250153
vt 0.2999878 0.6250153
vt 0.2999878 0.7499847
vt 0.2000122 0.7499847
vt 0.5000122 0.6250153
vt 0.5999878 0.6250153
vt 0.5999878 0.7499847
vt 0.5000122 0.7499847
vt 0.4000122 0.6250153
vt 0.4999878 0.6250153
vt 0.4999878 0.7499847
vt 0.4000122 0.7499847
vt 0.3000122 0.5000153
vt 0.3999878 0.5000153
vt 0.3999878 0.6249847
vt 0.3000122 0.6249847

# Normal
vn 0 0 -1

# Groups (Count = 2)

g mesh_0001
f 1/1/1 2/2/1 3/3/1 4/4/1
f 2/1/1 5/2/1 6/3/1 3/4/1
f 5/1/1 7/2/1 8/3/1 6/4/1
f 7/1/1 9/2/1 10/3/1 8/4/1
f 9/1/1 11/2/1 12/3/1 10/4/1
f 11/1/1 13/2/1 14/3/1 12/4/1
f 13/1/1 15/2/1 16/3/1 14/4/1
f 15/1/1 17/2/1 18/3/1 16/4/1
f 17/1/1 19/2/1 20/3/1 18/4/1
f 19/1/1 21/2/1 22/3/1 20/4/1
f 21/1/1 23/2/1 24/3/1 22/4/1
f 23/1/1 25/2/1 26/3/1 24/4/1
f 25/1/1 27/2/1 28/3/1 26/4/1
f 27/1/1 29/2/1 30/3/1 28/4/1
f 29/1/1 31/2/1 32/3/1 30/4/1
f 31/1/1 33/2/1 34/3/1 32/4/1
f 33/1/1 35/2/1 36/3/1 34/4/1
f 35/1/1 37/2/1 38/3/1 36/4/1
f 37/1/1 39/2/1 40/3/1 38/4/1
f 39/1/1 41/2/1 42/3/1 40/4/1
f 43/1/1 44/2/1 2/3/1 1/4/1
f 44/1/1 45/2/1 5/3/1 2/4/1
f 45/5/1 46/6/1 7/7/1 5/8/1
f 46/9/1 47/10/1 9/11/1 7/12/1
f 47/9/1 48/10/1 11/11/1 9/12/1
f 48/5/1 49/6/1 13/7/1 11/8/1
f 49/9/1 50/10/1 15/11/1 13/12/1
f 50/13/1 51/14/1 17/15/1 15/16/1
f 51/13/1 52/14/1 19/15/1 17/16/1
f 52/1/1 53/2/1 21/3/1 19/4/1
f 53/1/1 54/2/1 23/3/1 21/4/1
f 54/1/1 55/2/1 25/3/1 23/4/1
f 55/1/1 56/2/1 27/3/1 25/4/1
f 56/1/1 57/2/1 29/3/1 27/4/1
f 57/1/1 58/2/1 31/3/1 29/4/1
f 58/1/1 59/2/1 33/3/1 31/4/1
f 59/1/1 60/2/1 35/3/1 33/4/1
f 60/1/1 61/2/1 37/3/1 35/4/1
f 61/1/1 62/2/1 39/3/1 37/4/1
f 62/1/1 63/2/1 41/3/1 39/4/1
f 64/1/1 65/2/1 44/3/1 43/4/1
f 65/9/1 66/10/1 45/11/1 44/12/1
f 66/13/1 67/14/1 46/15/1 45/16/1
f 67/9/1 68/10/1 47/11/1 46/12/1
f 68/13/1 69/14/1 48/15/1 47/16/1
f 69/9/1 70/10/1 49/11/1 48/12/1
f 70/13/1 71/14/1 50/15/1 49/16/1
f 71/13/1 72/14/1 51/15/1 50/16/1
f 72/9/1 73/10/1 52/11/1 51/12/1
f 73/9/1 74/10/1 53/11/1 52/12/1
f 74/9/1 75/10/1 54/11/1 53/12/1
f 75/17/1 76/18/1 55/19/1 54/20/1
f 76/17/1 77/18/1 56/19/1 55/20/1
f 77/17/1 78/18/1 57/19/1 56/20/1
f 78/1/1 79/2/1 58/3/1 57/4/1
f 79/1/1 80/2/1 59/3/1 58/4/1
f 80/1/1 81/2/1 60/3/1 59/4/1
f 81/1/1 82/2/1 61/3/1 60/4/1
f 82/1/1 83/2/1 62/3/1 61/4/1
f 83/1/1 84/2/1 63/3/1 62/4/1
f 85/1/1 86/2/1 65/3/1 64/4/1
f 86/5/1 87/6/1 66/7/1 65/8/1
f 87/17/1 88/18/1 67/19/1 66/20/1
f 88/13/1 89/14/1 68/15/1 67/16/1
f 89/5/1 90/6/1 69/7/1 68/8/1
f 90/5/1 91/6/1 70/7/1 69/8/1
f 91/17/1 92/18/1 71/19/1 70/20/1
f 92/17/1 93/18/1 72/19/1 71/20/1
f 93/9/1 94/10/1 73/11/1 72/12/1
f 94/17/1 95/18/1 74/19/1 73/20/1
f 95/13/1 96/14/1 75/15/1 74/16/1
f 96/5/1 97/6/1 76/7/1 75/8/1
f 97/13/1 98/14/1 77/15/1 76/16/1
f 98/17/1 99/18/1 78/19/1 77/20/1
f 99/13/1 100/14/1 79/15/1 78/16/1
f 100/1/1 101/2/1 80/3/1 79/4/1
f 101/1/1 102/2/1 81/3/1 80/4/1
f 102/1/1 103/2/1 82/3/1 81/4/1
f 103/1/1 104/2/1 83/3/1 82/4/1
f 104/1/1 105/2/1 84/3/1 83/4/1
f 106/1/1 107/2/1 86/3/1 85/4/1
f 107/1/1 108/2/1 87/3/1 86/4/1
f 108/17/1 109/18/1 88/19/1 87/20/1
f 109/9/1 110/10/1 89/11/1 88/12/1
f 110/5/1 111/6/1 90/7/1 89/8/1
f 111/13/1 112/14/1 91/15/1 90/16/1
f 112/17/1 113/18/1 92/19/1 91/20/1
f 113/17/1 114/18/1 93/19/1 92/20/1
f 114/9/1 115/10/1 94/11/1 93/12/1
f 115/17/1 116/18/1 95/19/1 94/20/1
f 116/17/1 117/18/1 96/19/1 95/20/1
f 117/5/1 118/6/1 97/7/1 96/8/1
f 118/17/1 119/18/1 98/19/1 97/20/1
f 119/13/1 120/14/1 99/15/1 98/16/1
f 120/13/1 121/14/1 100/15/1 99/16/1
f 121/13/1 122/14/1 101/15/1 100/16/1
f 122/1/1 123/2/1 102/3/1 101/4/1
f 123/1/1 124/2/1 103/3/1 102/4/1
f 124/1/1 125/2/1 104/3/1 103/4/1
f 125/1/1 126/2/1 105/3/1 104/4/1
f 127/1/1 128/2/1 107/3/1 106/4/1
f 128/1/1 129/2/1 108/3/1 107/4/1
f 129/1/1 130/2/1 109/3/1 108/4/1
f 130/1/1 131/2/1 110/3/1 109/4/1
f 131/1/1 132/2/1 111/3/1 110/4/1
f 132/5/1 133/6/1 112/7/1 111/8/1
f 133/17/1 134/18/1 113/19/1 112/20/1
f 134/13/1 135/14/1 114/15/1 113/16/1
f 135/5/1 136/6/1 115/7/1 114/8/1
f 136/5/1 137/6/1 116/7/1 115/8/1
f 137/13/1 138/14/1 117/15/1 116/16/1
f 138/9/1 139/10/1 118/11/1 117/12/1
f 139/9/1 140/10/1 119/11/1 118/12/1
f 140/5/1 141/6/1 120/7/1 119/8/1
f 141/5/1 142/6/1 121/7/1 120/8/1
f 142/5/1 143/6/1 122/7/1 121/8/1
f 143/17/1 144/18/1 123/19/1 122/20/1
f 144/1/1 145/2/1 124/3/1 123/4/1
f 145/1/1 146/2/1 125/3/1 124/4/1
f 146/1/1 147/2/1 126/3/1 125/4/1
f 148/1/1 149/2/1 128/3/1 127/4/1
f 149/1/1 150/2/1 129/3/1 128/4/1
f 150/1/1 151/2/1 130/3/1 129/4/1
f 151/1/1 152/2/1 131/3/1 130/4/1
f 152/1/1 153/2/1 132/3/1 131/4/1
f 153/1/1 154/2/1 133/3/1 132/4/1
f 154/1/1 155/2/1 134/3/1 133/4/1
f 155/13/1 156/14/1 135/15/1 134/16/1
f 156/17/1 157/18/1 136/19/1 135/20/1
f 157/5/1 158/6/1 137/7/1 136/8/1
f 158/5/1 159/6/1 138/7/1 137/8/1
f 159/13/1 160/14/1 139/15/1 138/16/1
f 160/9/1 161/10/1 140/11/1 139/12/1
f 161/13/1 162/14/1 141/15/1 140/16/1
f 162/13/1 163/14/1 142/15/1 141/16/1
f 163/17/1 164/18/1 143/19/1 142/20/1
f 164/1/1 165/2/1 144/3/1 143/4/1
f 165/1/1 166/2/1 145/3/1 144/4/1
f 166/1/1 167/2/1 146/3/1 145/4/1
f 167/1/1 168/2/1 147/3/1 146/4/1
f 169/1/1 170/2/1 149/3/1 148/4/1
f 170/1/1 171/2/1 150/3/1 149/4/1
f 171/1/1 172/2/1 151/3/1 150/4/1
f 172/1/1 173/2/1 152/3/1 151/4/1
f 173/1/1 174/2/1 153/3/1 152/4/1
f 174/1/1 175/2/1 154/3/1 153/4/1
f 175/9/1 176/10/1 155/11/1 154/12/1
f 176/5/1 177/6/1 156/7/1 155/8/1
f 177/17/1 178/18/1 157/19/1 156/20/1
f 178/13/1 179/14/1 158/15/1 157/16/1
f 179/9/1 180/10/1 159/11/1 158/12/1
f 180/5/1 181/6/1 160/7/1 159/8/1
f 181/9/1 182/10/1 161/11/1 160/12/1
f 182/9/1 183/10/1 162/11/1 161/12/1
f 183/9/1 184/10/1 163/11/1 162/12/1
f 184/5/1 185/6/1 164/7/1 163/8/1
f 185/1/1 186/2/1 165/3/1 164/4/1
f 186/1/1 187/2/1 166/3/1 165/4/1
f 187/1/1 188/2/1 167/3/1 166/4/1
f 188/1/1 189/2/1 168/3/1 167/4/1
f 190/1/1 191/2/1 170/3/1 169/4/1
f 191/1/1 192/2/1 171/3/1 170/4/1
f 192/1/1 193/2/1 172/3/1 171/4/1
f 193/13/1 194/14/1 173/15/1 172/16/1
f 194/17/1 195/18/1 174/19/1 173/20/1
f 195/17/1 196/18/1 175/19/1 174/20/1
f 196/9/1 197/10/1 176/11/1 175/12/1
f 197/17/1 198/18/1 177/19/1 176/20/1
f 198/5/1 199/6/1 178/7/1 177/8/1
f 199/17/1 200/18/1 179/19/1 178/20/1
f 200/9/1 201/10/1 180/11/1 179/12/1
f 201/13/1 202/14/1 181/15/1 180/16/1
f 202/13/1 203/14/1 182/15/1 181/16/1
f 203/17/1 204/18/1 183/19/1 182/20/1
f 204/5/1 205/6/1 184/7/1 183/8/1
f 205/1/1 206/2/1 185/3/1 184/4/1
f 206/1/1 207/2/1 186/3/1 185/4/1
f 207/1/1 208/2/1 187/3/1 186/4/1
f 208/1/1 209/2/1 188/3/1 187/4/1
f 209/1/1 210/2/1 189/3/1 188/4/1
f 211/1/1 212/2/1 191/3/1 190/4/1
f 212/1/1 213/2/1 192/3/1 191/4/1
f 213/9/1 214/10/1 193/11/1 192/12/1
f 214/17/1 215/18/1 194/19/1 193/20/1
f 215/17/1 216/18/1 195/19/1 194/20/1
f 216/17/1 217/18/1 196/19/1 195/20/1
f 217/17/1 218/18/1 197/19/1 196/20/1
f 218/17/1 219/18/1 198/19/1 197/20/1
f 219/5/1 220/6/1 199/7/1 198/8/1
f 220/5/1 221/6/1 200/7/1 199/8/1
f 221/9/1 222/10/1 201/11/1 200/12/1
f 222/9/1 223/10/1 202/11/1 201/12/1
f 223/9/1 224/10/1 203/11/1 202/12/1
f 224/1/1 225/2/1 204/3/1 203/4/1
f 225/1/1 226/2/1 205/3/1 204/4/1
f 226/1/1 227/2/1 206/3/1 205/4/1
f 227/1/1 228/2/1 207/3/1 206/4/1
f 228/1/1 229/2/1 208/3/1 207/4/1
f 229/1/1 230/2/1 209/3/1 208/4/1
f 230/1/1 231/2/1 210/3/1 209/4/1
f 232/1/1 233/2/1 212/3/1 211/4/1
f 233/1/1 234/2/1 213/3/1 212/4/1
f 234/5/1 235/6/1 214/7/1 213/8/1
f 235/9/1 236/10/1 215/11/1 214/12/1
f 236/17/1 237/18/1 216/19/1 215/20/1
f 237/17/1 238/18/1 217/19/1 216/20/1
f 238/17/1 239/18/1 218/19/1 217/20/1
f 239/17/1 240/18/1 219/19/1 218/20/1
f 240/13/1 241/14/1 220/15/1 219/16/1
f 241/9/1 242/10/1 221/11/1 220/12/1
f 242/13/1 243/14/1 222/15/1 221/16/1
f 243/1/1 244/2/1 223/3/1 222/4/1
f 244/1/1 245/2/1 224/3/1 223/4/1
f 245/1/1 246/2/1 225/3/1 224/4/1
f 246/1/1 247/2/1 226/3/1 225/4/1
f 247/1/1 248/2/1 227/3/1 226/4/1
f 248/1/1 249/2/1 228/3/1 227/4/1
f 249/1/1 250/2/1 229/3/1 228/4/1
f 250/1/1 251/2/1 230/3/1 229/4/1
f 251/1/1 252/2/1 231/3/1 230/4/1
f 253/17/1 254/18/1 233/19/1 232/20/1
f 254/9/1 255/10/1 234/11/1 233/12/1
f 255/13/1 256/14/1 235/15/1 234/16/1
f 256/17/1 257/18/1 236/19/1 235/20/1
f 257/13/1 258/14/1 237/15/1 236/16/1
f 258/13/1 259/14/1 238/15/1 237/16/1
f 259/5/1 260/6/1 239/7/1 238/8/1
f 260/5/1 261/6/1 240/7/1 239/8/1
f 261/5/1 262/6/1 241/7/1 240/8/1
f 262/1/1 263/2/1 242/3/1 241/4/1
f 263/1/1 264/2/1 243/3/1 242/4/1
f 264/1/1 265/2/1 244/3/1 243/4/1
f 265/1/1 266/2/1 245/3/1 244/4/1
f 266/1/1 267/2/1 246/3/1 245/4/1
f 267/1/1 268/2/1 247/3/1 246/4/1
f 268/1/1 269/2/1 248/3/1 247/4/1
f 269/1/1 270/2/1 249/3/1 248/4/1
f 270/1/1 271/2/1 250/3/1 249/4/1
f 271/1/1 272/2/1 251/3/1 250/4/1
f 272/1/1 273/2/1 252/3/1 251/4/1
f 274/13/1 275/14/1 254/15/1 253/16/1
f 275/9/1 276/10/1 255/11/1 254/12/1
f 276/13/1 277/14/1 256/15/1 255/16/1
f 277/9/1 278/10/1 257/11/1 256/12/1
f 278/9/1 279/10/1 258/11/1 257/12/1
f 279/9/1 280/10/1 259/11/1 258/12/1
f 280/5/1 281/6/1 260/7/1 259/8/1
f 281/13/1 282/14/1 261/15/1 260/16/1
f 282/5/1 283/6/1 262/7/1 261/8/1
f 283/1/1 284/2/1 263/3/1 262/4/1
f 284/1/1 285/2/1 264/3/1 263/4/1
f 285/1/1 286/2/1 265/3/1 264/4/1
f 286/1/1 287/2/1 266/3/1 265/4/1
f 287/1/1 288/2/1 267/3/1 266/4/1
f 288/1/1 289/2/1 268/3/1 267/4/1
f 289/1/1 290/2/1 269/3/1 268/4/1
f 290/1/1 291/2/1 270/3/1 269/4/1
f 291/1/1 292/2/1 271/3/1 270/4/1
f 292/1/1 293/2/1 272/3/1 271/4/1
f 293/1/1 294/2/1 273/3/1 272/4/1
f 295/5/1 296/6/1 275/7/1 274/8/1
f 296/9/1 297/10/1 276/11/1 275/12/1
f 297/17/1 298/18/1 277/19/1 276/20/1
f 298/9/1 299/10/1 278/11/1 277/12/1
f 299/17/1 300/18/1 279/19/1 278/20/1
f 300/13/1 301/14/1 280/15/1 279/16/1
f 301/13/1 302/14/1 281/15/1 280/16/1
f 302/17/1 303/18/1 282/19/1 281/20/1
f 303/5/1 304/6/1 283/7/1 282/8/1
f 304/13/1 305/14/1 284/15/1 283/16/1
f 305/1/1 306/2/1 285/3/1 284/4/1
f 306/1/1 307/2/1 286/3/1 285/4/1
f 307/1/1 308/2/1 287/3/1 286/4/1
f 308/1/1 309/2/1 288/3/1 287/4/1
f 309/1/1 310/2/1 289/3/1 288/4/1
f 310/1/1 311/2/1 290/3/1 289/4/1
f 311/1/1 312/2/1 291/3/1 290/4/1
f 312/1/1 313/2/1 292/3/1 291/4/1
f 313/1/1 314/2/1 293/3/1 292/4/1
f 314/1/1 315/2/1 294/3/1 293/4/1
f 316/13/1 317/14/1 296/15/1 295/16/1
f 317/17/1 318/18/1 297/19/1 296/20/1
f 318/17/1 319/18/1 298/19/1 297/20/1
f 319/9/1 320/10/1 299/11/1 298/12/1
f 320/5/1 321/6/1 300/7/1 299/8/1
f 321/9/1 322/10/1 301/11/1 300/12/1
f 322/13/1 323/14/1 302/15/1 301/16/1
f 323/9/1 324/10/1 303/11/1 302/12/1
f 324/5/1 325/6/1 304/7/1 303/8/1
f 325/9/1 326/10/1 305/11/1 304/12/1
f 326/9/1 327/10/1 306/11/1 305/12/1
f 327/17/1 328/18/1 307/19/1 306/20/1
f 328/17/1 329/18/1 308/19/1 307/20/1
f 329/5/1 330/6/1 309/7/1 308/8/1
f 330/9/1 331/10/1 310/11/1 309/12/1
f 331/13/1 332/14/1 311/15/1 310/16/1
f 332/5/1 333/6/1 312/7/1 311/8/1
f 333/5/1 334/6/1 313/7/1 312/8/1
f 334/17/1 335/18/1 314/19/1 313/20/1
f 335/13/1 336/14/1 315/15/1 314/16/1
f 337/9/1 338/10/1 317/11/1 316/12/1
f 338/13/1 339/14/1 318/15/1 317/16/1
f 339/9/1 340/10/1 319/11/1 318/12/1
f 340/9/1 341/10/1 320/11/1 319/12/1
f 341/13/1 342/14/1 321/15/1 320/16/1
f 342/5/1 343/6/1 322/7/1 321/8/1
f 343/17/1 344/18/1 323/19/1 322/20/1
f 344/5/1 345/6/1 324/7/1 323/8/1
f 345/13/1 346/14/1 325/15/1 324/16/1
f 346/17/1 347/18/1 326/19/1 325/20/1
f 347/5/1 348/6/1 327/7/1 326/8/1
f 348/9/1 349/10/1 328/11/1 327/12/1
f 349/9/1 350/10/1 329/11/1 328/12/1
f 350/17/1 351/18/1 330/19/1 329/20/1
f 351/13/1 352/14/1 331/15/1 330/16/1
f 352/5/1 353/6/1 332/7/1 331/8/1
f 353/13/1 354/14/1 333/15/1 332/16/1
f 354/9/1 355/10/1 334/11/1 333/12/1
f 355/17/1 356/18/1 335/19/1 334/20/1
f 356/5/1 357/6/1 336/7/1 335/8/1
f 358/1/1 359/2/1 338/3/1 337/4/1
f 359/13/1 360/14/1 339/15/1 338/16/1
f 360/13/1 361/14/1 340/15/1 339/16/1
f 361/9/1 362/10/1 341/11/1 340/12/1
f 362/5/1 363/6/1 342/7/1 341/8/1
f 363/5/1 364/6/1 343/7/1 342/8/1
f 364/9/1 365/10/1 344/11/1 343/12/1
f 365/5/1 366/6/1 345/7/1 344/8/1
f 366/13/1 367/14/1 346/15/1 345/16/1
f 367/5/1 368/6/1 347/7/1 346/8/1
f 368/13/1 369/14/1 348/15/1 347/16/1
f 369/17/1 370/18/1 349/19/1 348/20/1
f 370/13/1 371/14/1 350/15/1 349/16/1
f 371/13/1 372/14/1 351/15/1 350/16/1
f 372/9/1 373/10/1 352/11/1 351/12/1
f 373/9/1 374/10/1 353/11/1 352/12/1
f 374/17/1 375/18/1 354/19/1 353/20/1
f 375/17/1 376/18/1 355/19/1 354/20/1
f 376/9/1 377/10/1 356/11/1 355/12/1
f 377/17/1 378/18/1 357/19/1 356/20/1
f 379/1/1 380/2/1 359/3/1 358/4/1
f 380/5/1 381/6/1 360/7/1 359/8/1
f 381/5/1 382/6/1 361/7/1 360/8/1
f 382/5/1 383/6/1 362/7/1 361/8/1
f 383/5/1 384/6/1 363/7/1 362/8/1
f 384/17/1 385/18/1 364/19/1 363/20/1
f 385/13/1 386/14/1 365/15/1 364/16/1
f 386/9/1 387/10/1 366/11/1 365/12/1
f 387/5/1 388/6/1 367/7/1 366/8/1
f 388/9/1 389/10/1 368/11/1 367/12/1
f 389/13/1 390/14/1 369/15/1 368/16/1
f 390/17/1 391/18/1 370/19/1 369/20/1
f 391/5/1 392/6/1 371/7/1 370/8/1
f 392/17/1 393/18/1 372/19/1 371/20/1
f 393/13/1 394/14/1 373/15/1 372/16/1
f 394/5/1 395/6/1 374/7/1 373/8/1
f 395/17/1 396/18/1 375/19/1 374/20/1
f 396/13/1 397/14/1 376/15/1 375/16/1
f 397/13/1 398/14/1 377/15/1 376/16/1
f 398/5/1 399/6/1 378/7/1 377/8/1
f 400/1/1 401/2/1 380/3/1 379/4/1
f 401/1/1 402/2/1 381/3/1 380/4/1
f 402/5/1 403/6/1 382/7/1 381/8/1
f 403/5/1 404/6/1 383/7/1 382/8/1
f 404/17/1 405/18/1 384/19/1 383/20/1
f 405/17/1 406/18/1 385/19/1 384/20/1
f 406/5/1 407/6/1 386/7/1 385/8/1
f 407/9/1 408/10/1 387/11/1 386/12/1
f 408/9/1 409/10/1 388/11/1 387/12/1
f 409/17/1 410/18/1 389/19/1 388/20/1
f 410/9/1 411/10/1 390/11/1 389/12/1
f 411/9/1 412/10/1 391/11/1 390/12/1
f 412/9/1 413/10/1 392/11/1 391/12/1
f 413/5/1 414/6/1 393/7/1 392/8/1
f 414/9/1 415/10/1 394/11/1 393/12/1
f 415/9/1 416/10/1 395/11/1 394/12/1
f 416/13/1 417/14/1 396/15/1 395/16/1
f 417/5/1 418/6/1 397/7/1 396/8/1
f 418/13/1 419/14/1 398/15/1 397/16/1
f 419/17/1 420/18/1 399/19/1 398/20/1
f 421/1/1 422/2/1 401/3/1 400/4/1
f 422/1/1 423/2/1 402/3/1 401/4/1
f 423/1/1 424/2/1 403/3/1 402/4/1
f 424/1/1 425/2/1 404/3/1 403/4/1
f 425/9/1 426/10/1 405/11/1 404/12/1
f 426/9/1 427/10/1 406/11/1 405/12/1
f 427/13/1 428/14/1 407/15/1 406/16/1
f 428/13/1 429/14/1 408/15/1 407/16/1
f 429/9/1 430/10/1 409/11/1 408/12/1
f 430/17/1 431/18/1 410/19/1 409/20/1
f 431/17/1 432/18/1 411/19/1 410/20/1
f 432/9/1 433/10/1 412/11/1 411/12/1
f 433/9/1 434/10/1 413/11/1 412/12/1
f 434/13/1 435/14/1 414/15/1 413/16/1
f 435/13/1 436/14/1 415/15/1 414/16/1
f 436/5/1 437/6/1 416/7/1 415/8/1
f 437/5/1 438/6/1 417/7/1 416/8/1
f 438/17/1 439/18/1 418/19/1 417/20/1
f 439/13/1 440/14/1 419/15/1 418/16/1
f 440/9/1 441/10/1 420/11/1 419/12/1

g mesh_0002
f 50/21/1 51/22/1 17/23/1 15/24/1
f 51/21/1 52/22/1 19/23/1 17/24/1
f 71/21/1 72/22/1 51/23/1 50/24/1
f 72/21/1 73/22/1 52/23/1 51/24/1
f 92/21/1 93/22/1 72/23/1 71/24/1
f 93/21/1 94/22/1 73/23/1 72/24/1
f 113/21/1 114/22/1 93/23/1 92/24/1
f 114/21/1 115/22/1 94/23/1 93/24/1
f 117/21/1 118/22/1 97/23/1 96/24/1
f 134/21/1 135/22/1 114/23/1 113/24/1
f 135/21/1 136/22/1 115/23/1 114/24/1
f 138/21/1 139/22/1 118/23/1 117/24/1
f 155/21/1 156/22/1 135/23/1 134/24/1
f 156/21/1 157/22/1 136/23/1 135/24/1
f 159/21/1 160/22/1 139/23/1 138/24/1
f 176/21/1 177/22/1 156/23/1 155/24/1
f 177/21/1 178/22/1 157/23/1 156/24/1
f 197/21/1 198/22/1 177/23/1 176/24/1
f 198/21/1 199/22/1 178/23/1 177/24/1
f 218/21/1 219/22/1 198/23/1 197/24/1
f 219/21/1 220/22/1 199/23/1 198/24/1
f 240/21/1 241/22/1 220/23/1 219/24/1
f 261/21/1 262/22/1 241/23/1 240/24/1

